<?xml version="1.0" encoding="UTF-8" standalone="no"?>
<!-- Generator: Adobe Illustrator 16.0.0, SVG Export Plug-In . SVG Version: 6.00 Build 0)  -->

<svg
   version="1.1"
   id="Layer_1"
   x="0px"
   y="0px"
   width="309.565"
   height="146.744"
   viewBox="0 0 309.565 146.744"
   enable-background="new 0 0 1096 780"
   xml:space="preserve"
   sodipodi:docname="adultos_green.svg"
   inkscape:version="1.2.2 (732a01da63, 2022-12-09)"
   xmlns:inkscape="http://www.inkscape.org/namespaces/inkscape"
   xmlns:sodipodi="http://sodipodi.sourceforge.net/DTD/sodipodi-0.dtd"
   xmlns="http://www.w3.org/2000/svg"
   xmlns:svg="http://www.w3.org/2000/svg"><defs
   id="defs1653" /><sodipodi:namedview
   id="namedview1651"
   pagecolor="#505050"
   bordercolor="#eeeeee"
   borderopacity="1"
   inkscape:showpageshadow="0"
   inkscape:pageopacity="0"
   inkscape:pagecheckerboard="0"
   inkscape:deskcolor="#505050"
   showgrid="false"
   inkscape:zoom="5.6931158"
   inkscape:cx="194.26972"
   inkscape:cy="73.158533"
   inkscape:window-width="1920"
   inkscape:window-height="1001"
   inkscape:window-x="-9"
   inkscape:window-y="-9"
   inkscape:window-maximized="1"
   inkscape:current-layer="Layer_1" />


<g
   id="g698"
   transform="translate(-707.986,-86.709)">
	<path
   fill="#d2dbeb"
   d="M 1005.281,86.709 H 862.768 720.254 c -6.775,0 -12.268,4.654 -12.268,10.395 v 125.954 c 0,5.741 5.492,10.395 12.268,10.395 h 142.514 142.514 c 6.775,0 12.269,-4.654 12.269,-10.395 V 97.104 c 0,-5.741 -5.494,-10.395 -12.27,-10.395 z"
   id="path538" />
	<path
   fill="#c9d2e1"
   d="m 720.254,223.057 c -0.011,0 -0.021,0 -0.03,0 -1.036,-0.007 -1.844,-0.911 -1.844,-1.947 V 99.051 c 0,-1.036 0.808,-1.94 1.844,-1.947 0.01,0 0.02,0 0.03,0 h 285.028 c 0.01,0 0.019,0 0.028,0 1.036,0.006 1.844,0.911 1.844,1.947 V 221.11 c 0,1.036 -0.808,1.94 -1.844,1.947 -0.01,0 -0.02,0 -0.028,0 z"
   id="path540" />
	<g
   id="g696">
		<g
   id="g584">
			<circle
   fill="#575351"
   cx="770.729"
   cy="169.61301"
   r="45.749001"
   id="circle542" />
			<g
   id="g566">
				<g
   id="g564">
					<g
   id="g546">
						<path
   fill="#cbc8c7"
   d="m 781.528,202.848 c -0.589,-1.928 0.325,-3.888 1.945,-4.604 0.813,-0.396 1.726,-0.385 2.591,-0.077 0.843,0.276 1.626,0.831 2.128,1.695 0.497,0.854 0.599,1.867 0.284,2.786 -0.328,0.882 -1.064,1.687 -2.072,2.169 -2.073,0.913 -4.31,-0.095 -4.876,-1.969 z"
   id="path544" />
					</g>
					<g
   id="g550">
						<path
   fill="#cbc8c7"
   d="m 742.479,190.137 c 0.805,-0.583 1.772,-0.792 2.652,-0.701 0.444,0.044 0.854,0.177 1.245,0.368 0.408,0.176 0.775,0.428 1.08,0.763 1.145,1.365 1.231,3.474 -0.089,4.993 -1.283,1.483 -3.783,1.55 -5.258,-0.176 -0.375,-0.412 -0.655,-0.873 -0.836,-1.345 -0.163,-0.487 -0.204,-1.003 -0.163,-1.484 0.087,-0.97 0.564,-1.835 1.369,-2.418 z"
   id="path548" />
					</g>
					<g
   id="g554">
						<path
   fill="#cbc8c7"
   d="m 742.479,149.088 c 0.803,0.586 1.291,1.436 1.461,2.292 0.195,0.879 0.133,1.804 -0.344,2.572 -0.507,0.752 -1.16,1.329 -2.026,1.593 -0.853,0.268 -1.848,0.261 -2.756,-0.142 -0.909,-0.402 -1.549,-1.147 -1.826,-2.073 -0.267,-0.915 -0.234,-2.047 0.379,-2.982 0.584,-0.952 1.437,-1.615 2.368,-1.835 0.963,-0.205 1.942,-0.011 2.744,0.575 z"
   id="path552" />
					</g>
					<g
   id="g558">
						<path
   fill="#cbc8c7"
   d="m 781.528,136.378 c -0.634,1.826 -2.561,3.018 -4.276,2.568 -1.747,-0.301 -3.038,-2.105 -2.868,-4.095 0.165,-1.97 2.127,-3.345 4.357,-2.946 2.199,0.557 3.453,2.543 2.787,4.473 z"
   id="path556" />
					</g>
					<g
   id="g562">
						<path
   fill="#cbc8c7"
   d="m 805.684,169.613 c -1.989,-0.038 -3.676,-1.507 -3.771,-3.282 -0.287,-1.751 1.114,-3.546 3.005,-3.985 1.98,-0.457 3.811,1 4.153,3.241 0.141,2.259 -1.404,4.063 -3.387,4.026 z"
   id="path560" />
					</g>
				</g>
			</g>
			<circle
   fill="#383432"
   cx="770.729"
   cy="169.61301"
   r="24.042"
   id="circle568" />
			<circle
   fill="#484442"
   cx="770.72998"
   cy="169.61301"
   r="20.819"
   id="circle570" />
			
			
			<g
   id="g582">
				
				
				
			</g>
		</g>
		<g
   id="g694">
			<g
   id="g620">
				<circle
   fill="#e34031"
   cx="864.146"
   cy="189.13901"
   r="26.215"
   id="circle586" />
				<g
   id="g610">
					<g
   id="g608">
						<g
   id="g590">
							<path
   fill="#676362"
   d="m 864.59,210.718 c -0.002,-1.21 0.892,-2.177 1.982,-2.312 0.553,-0.088 1.092,0.073 1.546,0.398 0.447,0.303 0.808,0.755 0.946,1.339 0.137,0.576 0.013,1.178 -0.339,1.653 -0.354,0.452 -0.932,0.789 -1.612,0.893 -1.384,0.171 -2.523,-0.796 -2.523,-1.971 z"
   id="path588" />
						</g>
						<g
   id="g594">
							<path
   fill="#676362"
   d="m 843.775,196.224 c 1.163,-0.383 2.29,0.195 2.809,1.171 0.435,1.016 0.135,2.266 -0.887,2.909 -0.995,0.628 -2.459,0.209 -3.021,-1.071 -0.641,-1.242 -0.004,-2.65 1.099,-3.009 z"
   id="path592" />
						</g>
						<g
   id="g598">
							<path
   fill="#676362"
   d="m 851.112,171.955 c 0.359,0.476 0.486,1.053 0.426,1.581 -0.049,0.546 -0.257,1.078 -0.678,1.447 -0.816,0.738 -2.109,0.83 -3.044,0.05 -0.898,-0.744 -0.938,-2.259 0.092,-3.201 0.514,-0.458 1.131,-0.701 1.713,-0.673 0.599,0.043 1.133,0.32 1.491,0.796 z"
   id="path596" />
						</g>
						<g
   id="g602">
							<path
   fill="#676362"
   d="m 876.472,171.42 c -0.681,0.938 -2.02,1.273 -2.957,0.699 -0.983,-0.493 -1.438,-1.765 -0.994,-2.878 0.437,-1.102 1.829,-1.539 3.072,-0.907 1.196,0.72 1.596,2.093 0.879,3.086 z"
   id="path600" />
						</g>
						<g
   id="g606">
							<path
   fill="#676362"
   d="m 884.813,195.387 c -1.137,-0.367 -1.843,-1.532 -1.581,-2.603 0.144,-1.091 1.265,-1.907 2.426,-1.831 1.218,0.081 2.012,1.265 1.814,2.646 -0.32,1.358 -1.528,2.154 -2.659,1.788 z"
   id="path604" />
						</g>
					</g>
				</g>
				<circle
   fill="#c62518"
   cx="864.14697"
   cy="189.13901"
   r="17.733999"
   id="circle612" />
				<circle
   fill="#e34031"
   cx="864.14697"
   cy="189.13901"
   r="15.421"
   id="circle614" />
				<path
   fill="#ea5345"
   d="m 857.293,195.655 c 6.008,0.157 11.789,-1.916 16.298,-5.659 2.783,-2.311 3.229,-6.414 0.965,-9.236 -2.06,-2.568 -5.094,-4.41 -8.769,-4.892 -5.739,-0.752 -11.438,2.46 -13.811,7.74 -0.839,1.867 -1.216,3.792 -1.193,5.666 0.043,3.526 2.985,6.289 6.51,6.381 z"
   id="path616" />
				<circle
   fill="#ee766a"
   cx="862.62799"
   cy="181.035"
   r="2.316"
   id="circle618" />
			</g>
			<g
   id="g656">
				<circle
   fill="#f4ae1d"
   cx="920.755"
   cy="158.813"
   r="26.216"
   id="circle622" />
				<g
   id="g646">
					<g
   id="g644">
						<g
   id="g626">
							<path
   fill="#676362"
   d="m 921.199,180.392 c -0.003,-1.21 0.891,-2.177 1.981,-2.312 0.553,-0.088 1.091,0.073 1.546,0.398 0.447,0.303 0.809,0.755 0.946,1.339 0.138,0.576 0.013,1.178 -0.339,1.653 -0.354,0.452 -0.932,0.789 -1.611,0.893 -1.384,0.171 -2.524,-0.797 -2.523,-1.971 z"
   id="path624" />
						</g>
						<g
   id="g630">
							<path
   fill="#676362"
   d="m 900.385,165.897 c 1.162,-0.383 2.289,0.195 2.808,1.171 0.435,1.016 0.136,2.266 -0.888,2.909 -0.993,0.628 -2.457,0.209 -3.02,-1.071 -0.64,-1.241 -0.004,-2.65 1.1,-3.009 z"
   id="path628" />
						</g>
						<g
   id="g634">
							<path
   fill="#676362"
   d="m 907.721,141.629 c 0.359,0.476 0.486,1.053 0.426,1.581 -0.049,0.546 -0.257,1.078 -0.678,1.448 -0.816,0.738 -2.109,0.83 -3.044,0.049 -0.898,-0.744 -0.938,-2.259 0.093,-3.201 0.514,-0.458 1.13,-0.701 1.713,-0.673 0.597,0.043 1.131,0.32 1.49,0.796 z"
   id="path632" />
						</g>
						<g
   id="g638">
							<path
   fill="#676362"
   d="m 933.08,141.094 c -0.681,0.938 -2.02,1.273 -2.957,0.698 -0.982,-0.492 -1.438,-1.764 -0.994,-2.878 0.438,-1.102 1.829,-1.539 3.072,-0.907 1.197,0.721 1.597,2.094 0.879,3.087 z"
   id="path636" />
						</g>
						<g
   id="g642">
							<path
   fill="#676362"
   d="m 941.421,165.061 c -1.137,-0.367 -1.843,-1.532 -1.581,-2.603 0.145,-1.091 1.265,-1.907 2.427,-1.831 1.218,0.082 2.011,1.265 1.813,2.647 -0.319,1.356 -1.527,2.153 -2.659,1.787 z"
   id="path640" />
						</g>
					</g>
				</g>
				<circle
   fill="#ee8718"
   cx="920.755"
   cy="158.813"
   r="17.733999"
   id="circle648" />
				<circle
   fill="#f9c125"
   cx="920.755"
   cy="158.813"
   r="15.421"
   id="circle650" />
				<path
   fill="#ffd040"
   d="m 913.901,165.329 c 6.008,0.157 11.789,-1.916 16.298,-5.659 2.783,-2.312 3.229,-6.414 0.965,-9.236 -2.06,-2.568 -5.094,-4.41 -8.768,-4.892 -5.74,-0.752 -11.438,2.46 -13.811,7.74 -0.84,1.867 -1.216,3.792 -1.193,5.666 0.043,3.526 2.984,6.289 6.509,6.381 z"
   id="path652" />
				<circle
   fill="#ffe596"
   cx="919.23602"
   cy="150.709"
   r="2.316"
   id="circle654" />
			</g>
			<g
   id="g692">
				<circle
   fill="#009639"
   cx="974.33197"
   cy="130.11099"
   r="26.216"
   id="circle658" />
				<g
   id="g682">
					<g
   id="g680">
						<g
   id="g662">
							<path
   fill="#676362"
   d="m 974.775,151.69 c -0.003,-1.21 0.892,-2.177 1.981,-2.312 0.554,-0.088 1.092,0.074 1.547,0.399 0.447,0.303 0.808,0.755 0.946,1.338 0.137,0.577 0.012,1.178 -0.34,1.654 -0.354,0.452 -0.931,0.789 -1.611,0.893 -1.384,0.17 -2.523,-0.797 -2.523,-1.972 z"
   id="path660" />
						</g>
						<g
   id="g666">
							<path
   fill="#676362"
   d="m 953.961,137.196 c 1.162,-0.383 2.289,0.195 2.809,1.17 0.435,1.016 0.135,2.266 -0.888,2.909 -0.994,0.629 -2.458,0.209 -3.02,-1.071 -0.641,-1.242 -0.005,-2.649 1.099,-3.008 z"
   id="path664" />
						</g>
						<g
   id="g670">
							<path
   fill="#676362"
   d="m 961.298,112.927 c 0.358,0.476 0.486,1.053 0.426,1.581 -0.05,0.546 -0.257,1.078 -0.678,1.448 -0.816,0.738 -2.109,0.83 -3.044,0.05 -0.898,-0.745 -0.938,-2.259 0.092,-3.201 0.514,-0.458 1.131,-0.701 1.713,-0.673 0.597,0.042 1.132,0.319 1.491,0.795 z"
   id="path668" />
						</g>
						<g
   id="g674">
							<path
   fill="#676362"
   d="m 986.656,112.392 c -0.681,0.938 -2.019,1.273 -2.956,0.698 -0.983,-0.492 -1.438,-1.764 -0.995,-2.878 0.438,-1.103 1.829,-1.54 3.072,-0.907 1.198,0.721 1.598,2.094 0.879,3.087 z"
   id="path672" />
						</g>
						<g
   id="g678">
							<path
   fill="#676362"
   d="m 994.998,136.359 c -1.137,-0.367 -1.844,-1.532 -1.581,-2.603 0.144,-1.091 1.265,-1.907 2.426,-1.831 1.218,0.082 2.011,1.265 1.813,2.646 -0.318,1.358 -1.526,2.154 -2.658,1.788 z"
   id="path676" />
						</g>
					</g>
				</g>
				<circle
   fill="#008838"
   cx="974.33197"
   cy="130.11099"
   r="17.733999"
   id="circle684" />
				<circle
   fill="#05a23f"
   cx="974.33197"
   cy="130.11099"
   r="13.107849"
   id="circle686"
   style="stroke-width:0.85" />
				<path
   fill="#33ab52"
   d="m 968.50695,135.6496 c 5.1068,0.13345 10.02065,-1.62775 13.8533,-4.81015 2.36555,-1.96435 2.74465,-5.4519 0.82025,-7.84975 -1.75185,-2.1828 -4.33075,-3.7485 -7.45365,-4.1582 -4.87815,-0.6392 -9.7223,2.09015 -11.73935,6.579 -0.71315,1.58695 -1.0336,3.22235 -1.01405,4.8161 0.0357,2.99625 2.5364,5.3448 5.5335,5.423 z"
   id="path688"
   style="stroke-width:0.85" />
				<circle
   fill="#68b86d"
   cx="973.04083"
   cy="123.2226"
   r="1.9677501"
   id="circle690"
   style="stroke-width:0.85" />
			</g>
		</g>
	</g>
</g>


</svg>
